<mxfile host="Electron" agent="Mozilla/5.0 (Macintosh; Intel Mac OS X 10_15_7) AppleWebKit/537.36 (KHTML, like Gecko) draw.io/24.7.8 Chrome/128.0.6613.36 Electron/32.0.1 Safari/537.36" version="24.7.8" pages="6">
  <diagram name="Pagina-1" id="7W3OKKxvmQ_qM88fhC1Q">
    <mxGraphModel dx="954" dy="610" grid="1" gridSize="10" guides="1" tooltips="1" connect="1" arrows="1" fold="1" page="1" pageScale="1" pageWidth="827" pageHeight="1169" math="0" shadow="0">
      <root>
        <mxCell id="0" />
        <mxCell id="1" parent="0" />
        <mxCell id="2c_gkDt4b6DRBO2nu95q-2" value="" style="rounded=0;whiteSpace=wrap;html=1;fillColor=#dae8fc;strokeColor=#6c8ebf;" vertex="1" parent="1">
          <mxGeometry x="50" y="280" width="120" height="300" as="geometry" />
        </mxCell>
        <mxCell id="mEeVF49X--B3QGPHo689-1" value="" style="rounded=0;whiteSpace=wrap;html=1;" parent="1" vertex="1">
          <mxGeometry x="230" y="280" width="320" height="200" as="geometry" />
        </mxCell>
        <mxCell id="mEeVF49X--B3QGPHo689-2" value="verwerkingseenheid" style="rounded=0;whiteSpace=wrap;html=1;fillColor=#f5f5f5;strokeColor=#666666;fontColor=#333333;" parent="1" vertex="1">
          <mxGeometry x="260" y="350" width="260" height="60" as="geometry" />
        </mxCell>
        <mxCell id="mEeVF49X--B3QGPHo689-3" value="programma" style="rounded=0;whiteSpace=wrap;html=1;fillColor=#f8cecc;strokeColor=#b85450;" parent="1" vertex="1">
          <mxGeometry x="260" y="300" width="120" height="30" as="geometry" />
        </mxCell>
        <mxCell id="mEeVF49X--B3QGPHo689-11" style="edgeStyle=orthogonalEdgeStyle;rounded=0;orthogonalLoop=1;jettySize=auto;html=1;entryX=0.5;entryY=1;entryDx=0;entryDy=0;startArrow=classic;startFill=1;" parent="1" source="mEeVF49X--B3QGPHo689-4" target="mEeVF49X--B3QGPHo689-2" edge="1">
          <mxGeometry relative="1" as="geometry" />
        </mxCell>
        <mxCell id="mEeVF49X--B3QGPHo689-4" value="werkgeheugen" style="rounded=0;whiteSpace=wrap;html=1;fillColor=#d5e8d4;strokeColor=#82b366;" parent="1" vertex="1">
          <mxGeometry x="330" y="430" width="120" height="30" as="geometry" />
        </mxCell>
        <mxCell id="mEeVF49X--B3QGPHo689-5" value="opslag" style="rounded=0;whiteSpace=wrap;html=1;fillColor=#fff2cc;strokeColor=#d6b656;" parent="1" vertex="1">
          <mxGeometry x="400" y="300" width="120" height="30" as="geometry" />
        </mxCell>
        <mxCell id="mEeVF49X--B3QGPHo689-9" style="edgeStyle=orthogonalEdgeStyle;rounded=0;orthogonalLoop=1;jettySize=auto;html=1;exitX=0.5;exitY=1;exitDx=0;exitDy=0;entryX=0.769;entryY=-0.006;entryDx=0;entryDy=0;entryPerimeter=0;startArrow=classic;startFill=1;" parent="1" source="mEeVF49X--B3QGPHo689-5" target="mEeVF49X--B3QGPHo689-2" edge="1">
          <mxGeometry relative="1" as="geometry" />
        </mxCell>
        <mxCell id="mEeVF49X--B3QGPHo689-10" style="edgeStyle=orthogonalEdgeStyle;rounded=0;orthogonalLoop=1;jettySize=auto;html=1;entryX=0.231;entryY=0;entryDx=0;entryDy=0;entryPerimeter=0;startArrow=classic;startFill=1;" parent="1" source="mEeVF49X--B3QGPHo689-3" target="mEeVF49X--B3QGPHo689-2" edge="1">
          <mxGeometry relative="1" as="geometry" />
        </mxCell>
        <mxCell id="mEeVF49X--B3QGPHo689-16" value="" style="shape=flexArrow;endArrow=classic;html=1;rounded=0;" parent="1" edge="1">
          <mxGeometry width="50" height="50" relative="1" as="geometry">
            <mxPoint x="160" y="379.5" as="sourcePoint" />
            <mxPoint x="230" y="379.5" as="targetPoint" />
            <Array as="points">
              <mxPoint x="210" y="379.5" />
            </Array>
          </mxGeometry>
        </mxCell>
        <mxCell id="mEeVF49X--B3QGPHo689-17" value="" style="shape=flexArrow;endArrow=classic;html=1;rounded=0;exitX=1;exitY=0.5;exitDx=0;exitDy=0;" parent="1" source="mEeVF49X--B3QGPHo689-1" edge="1">
          <mxGeometry width="50" height="50" relative="1" as="geometry">
            <mxPoint x="560" y="380" as="sourcePoint" />
            <mxPoint x="620" y="380" as="targetPoint" />
          </mxGeometry>
        </mxCell>
        <mxCell id="mEeVF49X--B3QGPHo689-18" value="invoer" style="text;html=1;align=center;verticalAlign=middle;whiteSpace=wrap;rounded=0;" parent="1" vertex="1">
          <mxGeometry x="150" y="380" width="60" height="30" as="geometry" />
        </mxCell>
        <mxCell id="mEeVF49X--B3QGPHo689-19" value="uitvoer" style="text;html=1;align=center;verticalAlign=middle;whiteSpace=wrap;rounded=0;" parent="1" vertex="1">
          <mxGeometry x="544" y="379" width="60" height="30" as="geometry" />
        </mxCell>
        <mxCell id="mEeVF49X--B3QGPHo689-20" value="" style="shape=flexArrow;endArrow=classic;startArrow=classic;html=1;rounded=0;dashed=1;dashPattern=1 1;" parent="1" edge="1">
          <mxGeometry width="100" height="100" relative="1" as="geometry">
            <mxPoint x="380" y="280" as="sourcePoint" />
            <mxPoint x="380" y="200" as="targetPoint" />
          </mxGeometry>
        </mxCell>
        <mxCell id="mEeVF49X--B3QGPHo689-21" value="Communicatie" style="text;html=1;align=center;verticalAlign=middle;whiteSpace=wrap;rounded=0;" parent="1" vertex="1">
          <mxGeometry x="390" y="226" width="76" height="30" as="geometry" />
        </mxCell>
        <mxCell id="2c_gkDt4b6DRBO2nu95q-3" value="" style="rounded=0;whiteSpace=wrap;html=1;fillColor=#dae8fc;strokeColor=#6c8ebf;" vertex="1" parent="1">
          <mxGeometry x="170" y="520" width="450" height="60" as="geometry" />
        </mxCell>
        <mxCell id="2c_gkDt4b6DRBO2nu95q-4" value="" style="rounded=0;whiteSpace=wrap;html=1;fillColor=#dae8fc;strokeColor=#6c8ebf;" vertex="1" parent="1">
          <mxGeometry x="620" y="280" width="120" height="300" as="geometry" />
        </mxCell>
        <mxCell id="2c_gkDt4b6DRBO2nu95q-5" value="" style="ellipse;whiteSpace=wrap;html=1;aspect=fixed;" vertex="1" parent="1">
          <mxGeometry x="90" y="300" width="30" height="30" as="geometry" />
        </mxCell>
        <mxCell id="2c_gkDt4b6DRBO2nu95q-6" value="" style="ellipse;whiteSpace=wrap;html=1;aspect=fixed;" vertex="1" parent="1">
          <mxGeometry x="90" y="349" width="30" height="30" as="geometry" />
        </mxCell>
        <mxCell id="2c_gkDt4b6DRBO2nu95q-7" value="" style="ellipse;whiteSpace=wrap;html=1;aspect=fixed;" vertex="1" parent="1">
          <mxGeometry x="90" y="400" width="30" height="30" as="geometry" />
        </mxCell>
        <mxCell id="2c_gkDt4b6DRBO2nu95q-8" value="" style="endArrow=classic;html=1;rounded=0;" edge="1" parent="1">
          <mxGeometry width="50" height="50" relative="1" as="geometry">
            <mxPoint x="120" y="410" as="sourcePoint" />
            <mxPoint x="160" y="390" as="targetPoint" />
          </mxGeometry>
        </mxCell>
        <mxCell id="2c_gkDt4b6DRBO2nu95q-9" value="Actuators" style="text;html=1;align=center;verticalAlign=middle;whiteSpace=wrap;rounded=0;" vertex="1" parent="1">
          <mxGeometry x="650" y="250" width="60" height="30" as="geometry" />
        </mxCell>
        <mxCell id="2c_gkDt4b6DRBO2nu95q-10" value="Sensors" style="text;html=1;align=center;verticalAlign=middle;whiteSpace=wrap;rounded=0;" vertex="1" parent="1">
          <mxGeometry x="75" y="256" width="60" height="30" as="geometry" />
        </mxCell>
        <mxCell id="2c_gkDt4b6DRBO2nu95q-11" value="" style="endArrow=classic;html=1;rounded=0;exitX=1;exitY=1;exitDx=0;exitDy=0;" edge="1" parent="1" source="2c_gkDt4b6DRBO2nu95q-5">
          <mxGeometry width="50" height="50" relative="1" as="geometry">
            <mxPoint x="110" y="490" as="sourcePoint" />
            <mxPoint x="170" y="370" as="targetPoint" />
          </mxGeometry>
        </mxCell>
        <mxCell id="2c_gkDt4b6DRBO2nu95q-12" value="&lt;font style=&quot;font-size: 19px;&quot;&gt;Fysieke wereld&lt;/font&gt;" style="text;html=1;align=center;verticalAlign=middle;whiteSpace=wrap;rounded=0;" vertex="1" parent="1">
          <mxGeometry x="310" y="535" width="160" height="30" as="geometry" />
        </mxCell>
        <mxCell id="2c_gkDt4b6DRBO2nu95q-13" value="" style="endArrow=classic;html=1;rounded=0;" edge="1" parent="1" source="2c_gkDt4b6DRBO2nu95q-6">
          <mxGeometry width="50" height="50" relative="1" as="geometry">
            <mxPoint x="390" y="430" as="sourcePoint" />
            <mxPoint x="160" y="380" as="targetPoint" />
          </mxGeometry>
        </mxCell>
        <mxCell id="2c_gkDt4b6DRBO2nu95q-14" value="" style="rhombus;whiteSpace=wrap;html=1;" vertex="1" parent="1">
          <mxGeometry x="655" y="320" width="50" height="49" as="geometry" />
        </mxCell>
        <mxCell id="2c_gkDt4b6DRBO2nu95q-15" value="" style="rhombus;whiteSpace=wrap;html=1;" vertex="1" parent="1">
          <mxGeometry x="655" y="379" width="50" height="49" as="geometry" />
        </mxCell>
        <mxCell id="2c_gkDt4b6DRBO2nu95q-16" value="" style="endArrow=classic;html=1;rounded=0;entryX=0;entryY=1;entryDx=0;entryDy=0;" edge="1" parent="1" target="2c_gkDt4b6DRBO2nu95q-14">
          <mxGeometry width="50" height="50" relative="1" as="geometry">
            <mxPoint x="610" y="380" as="sourcePoint" />
            <mxPoint x="440" y="380" as="targetPoint" />
          </mxGeometry>
        </mxCell>
        <mxCell id="2c_gkDt4b6DRBO2nu95q-17" value="" style="endArrow=classic;html=1;rounded=0;entryX=0;entryY=0.5;entryDx=0;entryDy=0;" edge="1" parent="1" target="2c_gkDt4b6DRBO2nu95q-15">
          <mxGeometry width="50" height="50" relative="1" as="geometry">
            <mxPoint x="610" y="380" as="sourcePoint" />
            <mxPoint x="440" y="380" as="targetPoint" />
          </mxGeometry>
        </mxCell>
        <mxCell id="2c_gkDt4b6DRBO2nu95q-18" value="&lt;font style=&quot;font-size: 19px;&quot;&gt;Informatie-wereld&lt;/font&gt;" style="text;html=1;align=center;verticalAlign=middle;whiteSpace=wrap;rounded=0;" vertex="1" parent="1">
          <mxGeometry x="210" y="250" width="160" height="30" as="geometry" />
        </mxCell>
      </root>
    </mxGraphModel>
  </diagram>
  <diagram name="physical-computing-inleiding-1" id="bR4E_jTKHO0EqbiKF2Hv">
    <mxGraphModel dx="954" dy="610" grid="1" gridSize="10" guides="1" tooltips="1" connect="1" arrows="1" fold="1" page="1" pageScale="1" pageWidth="827" pageHeight="1169" math="0" shadow="0">
      <root>
        <mxCell id="awgSOqlswUtbNjberbTt-0" />
        <mxCell id="awgSOqlswUtbNjberbTt-1" parent="awgSOqlswUtbNjberbTt-0" />
        <mxCell id="awgSOqlswUtbNjberbTt-17" value="" style="rounded=0;whiteSpace=wrap;html=1;fillColor=#dae8fc;strokeColor=#6c8ebf;" vertex="1" parent="awgSOqlswUtbNjberbTt-1">
          <mxGeometry x="40" y="280" width="700" height="260" as="geometry" />
        </mxCell>
        <mxCell id="awgSOqlswUtbNjberbTt-3" value="" style="rounded=0;whiteSpace=wrap;html=1;" vertex="1" parent="awgSOqlswUtbNjberbTt-1">
          <mxGeometry x="230" y="280" width="320" height="200" as="geometry" />
        </mxCell>
        <mxCell id="awgSOqlswUtbNjberbTt-4" value="verwerkingseenheid" style="rounded=0;whiteSpace=wrap;html=1;fillColor=#f5f5f5;strokeColor=#666666;fontColor=#333333;" vertex="1" parent="awgSOqlswUtbNjberbTt-1">
          <mxGeometry x="260" y="350" width="260" height="60" as="geometry" />
        </mxCell>
        <mxCell id="awgSOqlswUtbNjberbTt-5" value="programma" style="rounded=0;whiteSpace=wrap;html=1;fillColor=#f8cecc;strokeColor=#b85450;" vertex="1" parent="awgSOqlswUtbNjberbTt-1">
          <mxGeometry x="260" y="300" width="120" height="30" as="geometry" />
        </mxCell>
        <mxCell id="awgSOqlswUtbNjberbTt-6" style="edgeStyle=orthogonalEdgeStyle;rounded=0;orthogonalLoop=1;jettySize=auto;html=1;entryX=0.5;entryY=1;entryDx=0;entryDy=0;startArrow=classic;startFill=1;" edge="1" parent="awgSOqlswUtbNjberbTt-1" source="awgSOqlswUtbNjberbTt-7" target="awgSOqlswUtbNjberbTt-4">
          <mxGeometry relative="1" as="geometry" />
        </mxCell>
        <mxCell id="awgSOqlswUtbNjberbTt-7" value="werkgeheugen" style="rounded=0;whiteSpace=wrap;html=1;fillColor=#d5e8d4;strokeColor=#82b366;" vertex="1" parent="awgSOqlswUtbNjberbTt-1">
          <mxGeometry x="330" y="430" width="120" height="30" as="geometry" />
        </mxCell>
        <mxCell id="awgSOqlswUtbNjberbTt-8" value="opslag" style="rounded=0;whiteSpace=wrap;html=1;fillColor=#fff2cc;strokeColor=#d6b656;" vertex="1" parent="awgSOqlswUtbNjberbTt-1">
          <mxGeometry x="400" y="300" width="120" height="30" as="geometry" />
        </mxCell>
        <mxCell id="awgSOqlswUtbNjberbTt-9" style="edgeStyle=orthogonalEdgeStyle;rounded=0;orthogonalLoop=1;jettySize=auto;html=1;exitX=0.5;exitY=1;exitDx=0;exitDy=0;entryX=0.769;entryY=-0.006;entryDx=0;entryDy=0;entryPerimeter=0;startArrow=classic;startFill=1;" edge="1" parent="awgSOqlswUtbNjberbTt-1" source="awgSOqlswUtbNjberbTt-8" target="awgSOqlswUtbNjberbTt-4">
          <mxGeometry relative="1" as="geometry" />
        </mxCell>
        <mxCell id="awgSOqlswUtbNjberbTt-10" style="edgeStyle=orthogonalEdgeStyle;rounded=0;orthogonalLoop=1;jettySize=auto;html=1;entryX=0.231;entryY=0;entryDx=0;entryDy=0;entryPerimeter=0;startArrow=classic;startFill=1;" edge="1" parent="awgSOqlswUtbNjberbTt-1" source="awgSOqlswUtbNjberbTt-5" target="awgSOqlswUtbNjberbTt-4">
          <mxGeometry relative="1" as="geometry" />
        </mxCell>
        <mxCell id="awgSOqlswUtbNjberbTt-11" value="" style="shape=flexArrow;endArrow=classic;html=1;rounded=0;fillColor=default;" edge="1" parent="awgSOqlswUtbNjberbTt-1">
          <mxGeometry width="50" height="50" relative="1" as="geometry">
            <mxPoint x="160" y="379.5" as="sourcePoint" />
            <mxPoint x="230" y="379.5" as="targetPoint" />
            <Array as="points">
              <mxPoint x="210" y="379.5" />
            </Array>
          </mxGeometry>
        </mxCell>
        <mxCell id="awgSOqlswUtbNjberbTt-12" value="" style="shape=flexArrow;endArrow=classic;html=1;rounded=0;exitX=1;exitY=0.5;exitDx=0;exitDy=0;fillColor=default;" edge="1" parent="awgSOqlswUtbNjberbTt-1" source="awgSOqlswUtbNjberbTt-3">
          <mxGeometry width="50" height="50" relative="1" as="geometry">
            <mxPoint x="560" y="380" as="sourcePoint" />
            <mxPoint x="620" y="380" as="targetPoint" />
          </mxGeometry>
        </mxCell>
        <mxCell id="awgSOqlswUtbNjberbTt-13" value="&lt;b&gt;invoer&lt;/b&gt;" style="text;html=1;align=center;verticalAlign=middle;whiteSpace=wrap;rounded=0;" vertex="1" parent="awgSOqlswUtbNjberbTt-1">
          <mxGeometry x="160" y="380" width="60" height="30" as="geometry" />
        </mxCell>
        <mxCell id="awgSOqlswUtbNjberbTt-14" value="&lt;b&gt;uitvoer&lt;/b&gt;" style="text;html=1;align=center;verticalAlign=middle;whiteSpace=wrap;rounded=0;" vertex="1" parent="awgSOqlswUtbNjberbTt-1">
          <mxGeometry x="544" y="379" width="60" height="30" as="geometry" />
        </mxCell>
        <mxCell id="awgSOqlswUtbNjberbTt-15" value="" style="shape=flexArrow;endArrow=classic;startArrow=classic;html=1;rounded=0;dashed=1;dashPattern=1 1;" edge="1" parent="awgSOqlswUtbNjberbTt-1">
          <mxGeometry width="100" height="100" relative="1" as="geometry">
            <mxPoint x="500" y="280" as="sourcePoint" />
            <mxPoint x="500" y="200" as="targetPoint" />
          </mxGeometry>
        </mxCell>
        <mxCell id="awgSOqlswUtbNjberbTt-16" value="&lt;b&gt;&lt;font style=&quot;font-size: 14px;&quot;&gt;Communicatie&lt;/font&gt;&lt;/b&gt;" style="text;html=1;align=center;verticalAlign=middle;whiteSpace=wrap;rounded=0;" vertex="1" parent="awgSOqlswUtbNjberbTt-1">
          <mxGeometry x="528" y="230" width="76" height="30" as="geometry" />
        </mxCell>
        <mxCell id="awgSOqlswUtbNjberbTt-19" value="" style="ellipse;whiteSpace=wrap;html=1;aspect=fixed;" vertex="1" parent="awgSOqlswUtbNjberbTt-1">
          <mxGeometry x="90" y="300" width="30" height="30" as="geometry" />
        </mxCell>
        <mxCell id="awgSOqlswUtbNjberbTt-20" value="" style="ellipse;whiteSpace=wrap;html=1;aspect=fixed;" vertex="1" parent="awgSOqlswUtbNjberbTt-1">
          <mxGeometry x="90" y="349" width="30" height="30" as="geometry" />
        </mxCell>
        <mxCell id="awgSOqlswUtbNjberbTt-21" value="" style="ellipse;whiteSpace=wrap;html=1;aspect=fixed;" vertex="1" parent="awgSOqlswUtbNjberbTt-1">
          <mxGeometry x="90" y="400" width="30" height="30" as="geometry" />
        </mxCell>
        <mxCell id="awgSOqlswUtbNjberbTt-22" value="" style="endArrow=classic;html=1;rounded=0;" edge="1" parent="awgSOqlswUtbNjberbTt-1">
          <mxGeometry width="50" height="50" relative="1" as="geometry">
            <mxPoint x="120" y="410" as="sourcePoint" />
            <mxPoint x="160" y="390" as="targetPoint" />
          </mxGeometry>
        </mxCell>
        <mxCell id="awgSOqlswUtbNjberbTt-23" value="&lt;b&gt;&lt;font style=&quot;font-size: 14px;&quot;&gt;Actuatoren&lt;/font&gt;&lt;/b&gt;" style="text;html=1;align=center;verticalAlign=middle;whiteSpace=wrap;rounded=0;" vertex="1" parent="awgSOqlswUtbNjberbTt-1">
          <mxGeometry x="645" y="440" width="60" height="30" as="geometry" />
        </mxCell>
        <mxCell id="awgSOqlswUtbNjberbTt-24" value="&lt;b&gt;&lt;font style=&quot;font-size: 14px;&quot;&gt;Sensoren&lt;/font&gt;&lt;/b&gt;" style="text;html=1;align=center;verticalAlign=middle;whiteSpace=wrap;rounded=0;" vertex="1" parent="awgSOqlswUtbNjberbTt-1">
          <mxGeometry x="75" y="440" width="60" height="30" as="geometry" />
        </mxCell>
        <mxCell id="awgSOqlswUtbNjberbTt-25" value="" style="endArrow=classic;html=1;rounded=0;exitX=1;exitY=1;exitDx=0;exitDy=0;" edge="1" parent="awgSOqlswUtbNjberbTt-1" source="awgSOqlswUtbNjberbTt-19">
          <mxGeometry width="50" height="50" relative="1" as="geometry">
            <mxPoint x="110" y="490" as="sourcePoint" />
            <mxPoint x="170" y="370" as="targetPoint" />
          </mxGeometry>
        </mxCell>
        <mxCell id="awgSOqlswUtbNjberbTt-26" value="&lt;font style=&quot;font-size: 19px;&quot;&gt;Fysieke wereld&lt;/font&gt;" style="text;html=1;align=center;verticalAlign=middle;whiteSpace=wrap;rounded=0;" vertex="1" parent="awgSOqlswUtbNjberbTt-1">
          <mxGeometry x="310" y="510" width="160" height="30" as="geometry" />
        </mxCell>
        <mxCell id="awgSOqlswUtbNjberbTt-27" value="" style="endArrow=classic;html=1;rounded=0;" edge="1" parent="awgSOqlswUtbNjberbTt-1" source="awgSOqlswUtbNjberbTt-20">
          <mxGeometry width="50" height="50" relative="1" as="geometry">
            <mxPoint x="390" y="430" as="sourcePoint" />
            <mxPoint x="160" y="380" as="targetPoint" />
          </mxGeometry>
        </mxCell>
        <mxCell id="awgSOqlswUtbNjberbTt-28" value="" style="rhombus;whiteSpace=wrap;html=1;" vertex="1" parent="awgSOqlswUtbNjberbTt-1">
          <mxGeometry x="655" y="320" width="50" height="49" as="geometry" />
        </mxCell>
        <mxCell id="awgSOqlswUtbNjberbTt-29" value="" style="rhombus;whiteSpace=wrap;html=1;" vertex="1" parent="awgSOqlswUtbNjberbTt-1">
          <mxGeometry x="655" y="379" width="50" height="49" as="geometry" />
        </mxCell>
        <mxCell id="awgSOqlswUtbNjberbTt-30" value="" style="endArrow=classic;html=1;rounded=0;entryX=0;entryY=1;entryDx=0;entryDy=0;" edge="1" parent="awgSOqlswUtbNjberbTt-1" target="awgSOqlswUtbNjberbTt-28">
          <mxGeometry width="50" height="50" relative="1" as="geometry">
            <mxPoint x="610" y="380" as="sourcePoint" />
            <mxPoint x="440" y="380" as="targetPoint" />
          </mxGeometry>
        </mxCell>
        <mxCell id="awgSOqlswUtbNjberbTt-31" value="" style="endArrow=classic;html=1;rounded=0;entryX=0;entryY=0.5;entryDx=0;entryDy=0;" edge="1" parent="awgSOqlswUtbNjberbTt-1" target="awgSOqlswUtbNjberbTt-29">
          <mxGeometry width="50" height="50" relative="1" as="geometry">
            <mxPoint x="610" y="380" as="sourcePoint" />
            <mxPoint x="440" y="380" as="targetPoint" />
          </mxGeometry>
        </mxCell>
        <mxCell id="awgSOqlswUtbNjberbTt-32" value="&lt;font style=&quot;font-size: 19px;&quot;&gt;Informatie-wereld&lt;/font&gt;" style="text;html=1;align=center;verticalAlign=middle;whiteSpace=wrap;rounded=0;" vertex="1" parent="awgSOqlswUtbNjberbTt-1">
          <mxGeometry x="310" y="250" width="160" height="30" as="geometry" />
        </mxCell>
        <mxCell id="XK3MAM5ZkflmEuEVM3oR-0" value="&lt;b&gt;&lt;font style=&quot;font-size: 14px;&quot;&gt;Controller&lt;/font&gt;&lt;/b&gt;" style="text;html=1;align=center;verticalAlign=middle;whiteSpace=wrap;rounded=0;" vertex="1" parent="awgSOqlswUtbNjberbTt-1">
          <mxGeometry x="240" y="440" width="60" height="30" as="geometry" />
        </mxCell>
      </root>
    </mxGraphModel>
  </diagram>
  <diagram name="physical-computing-inleiding-0" id="r8bvYUEpvQxfZWthTBEH">
    <mxGraphModel dx="954" dy="610" grid="1" gridSize="10" guides="1" tooltips="1" connect="1" arrows="1" fold="1" page="1" pageScale="1" pageWidth="827" pageHeight="1169" math="0" shadow="0">
      <root>
        <mxCell id="rxodD__buRXMYbfE_kAh-0" />
        <mxCell id="rxodD__buRXMYbfE_kAh-1" parent="rxodD__buRXMYbfE_kAh-0" />
        <mxCell id="rxodD__buRXMYbfE_kAh-2" value="" style="rounded=0;whiteSpace=wrap;html=1;fillColor=#dae8fc;strokeColor=#6c8ebf;" vertex="1" parent="rxodD__buRXMYbfE_kAh-1">
          <mxGeometry x="40" y="280" width="700" height="230" as="geometry" />
        </mxCell>
        <mxCell id="rxodD__buRXMYbfE_kAh-3" value="" style="rounded=0;whiteSpace=wrap;html=1;" vertex="1" parent="rxodD__buRXMYbfE_kAh-1">
          <mxGeometry x="230" y="280" width="330" height="140" as="geometry" />
        </mxCell>
        <mxCell id="rxodD__buRXMYbfE_kAh-11" value="" style="shape=flexArrow;endArrow=classic;html=1;rounded=0;fillColor=default;" edge="1" parent="rxodD__buRXMYbfE_kAh-1">
          <mxGeometry width="50" height="50" relative="1" as="geometry">
            <mxPoint x="160" y="379.5" as="sourcePoint" />
            <mxPoint x="230" y="379.5" as="targetPoint" />
            <Array as="points">
              <mxPoint x="210" y="379.5" />
            </Array>
          </mxGeometry>
        </mxCell>
        <mxCell id="rxodD__buRXMYbfE_kAh-12" value="" style="shape=flexArrow;endArrow=classic;html=1;rounded=0;exitX=0.25;exitY=0;exitDx=0;exitDy=0;fillColor=default;" edge="1" parent="rxodD__buRXMYbfE_kAh-1" source="rxodD__buRXMYbfE_kAh-14">
          <mxGeometry width="50" height="50" relative="1" as="geometry">
            <mxPoint x="560" y="380" as="sourcePoint" />
            <mxPoint x="620" y="380" as="targetPoint" />
          </mxGeometry>
        </mxCell>
        <mxCell id="rxodD__buRXMYbfE_kAh-13" value="&lt;b&gt;invoer&lt;/b&gt;" style="text;html=1;align=center;verticalAlign=middle;whiteSpace=wrap;rounded=0;" vertex="1" parent="rxodD__buRXMYbfE_kAh-1">
          <mxGeometry x="160" y="380" width="60" height="30" as="geometry" />
        </mxCell>
        <mxCell id="rxodD__buRXMYbfE_kAh-14" value="&lt;b&gt;&amp;nbsp; &amp;nbsp;uitvoer&lt;/b&gt;" style="text;html=1;align=center;verticalAlign=middle;whiteSpace=wrap;rounded=0;" vertex="1" parent="rxodD__buRXMYbfE_kAh-1">
          <mxGeometry x="544" y="379" width="60" height="30" as="geometry" />
        </mxCell>
        <mxCell id="rxodD__buRXMYbfE_kAh-15" value="" style="shape=flexArrow;endArrow=classic;startArrow=classic;html=1;rounded=0;dashed=1;dashPattern=1 1;" edge="1" parent="rxodD__buRXMYbfE_kAh-1">
          <mxGeometry width="100" height="100" relative="1" as="geometry">
            <mxPoint x="500" y="280" as="sourcePoint" />
            <mxPoint x="500" y="200" as="targetPoint" />
          </mxGeometry>
        </mxCell>
        <mxCell id="rxodD__buRXMYbfE_kAh-16" value="&lt;b&gt;&lt;font style=&quot;font-size: 14px;&quot;&gt;Communicatie&lt;/font&gt;&lt;/b&gt;" style="text;html=1;align=center;verticalAlign=middle;whiteSpace=wrap;rounded=0;" vertex="1" parent="rxodD__buRXMYbfE_kAh-1">
          <mxGeometry x="528" y="230" width="76" height="30" as="geometry" />
        </mxCell>
        <mxCell id="rxodD__buRXMYbfE_kAh-17" value="" style="ellipse;whiteSpace=wrap;html=1;aspect=fixed;" vertex="1" parent="rxodD__buRXMYbfE_kAh-1">
          <mxGeometry x="90" y="300" width="30" height="30" as="geometry" />
        </mxCell>
        <mxCell id="rxodD__buRXMYbfE_kAh-18" value="" style="ellipse;whiteSpace=wrap;html=1;aspect=fixed;" vertex="1" parent="rxodD__buRXMYbfE_kAh-1">
          <mxGeometry x="90" y="349" width="30" height="30" as="geometry" />
        </mxCell>
        <mxCell id="rxodD__buRXMYbfE_kAh-19" value="" style="ellipse;whiteSpace=wrap;html=1;aspect=fixed;" vertex="1" parent="rxodD__buRXMYbfE_kAh-1">
          <mxGeometry x="90" y="400" width="30" height="30" as="geometry" />
        </mxCell>
        <mxCell id="rxodD__buRXMYbfE_kAh-20" value="" style="endArrow=classic;html=1;rounded=0;" edge="1" parent="rxodD__buRXMYbfE_kAh-1">
          <mxGeometry width="50" height="50" relative="1" as="geometry">
            <mxPoint x="120" y="410" as="sourcePoint" />
            <mxPoint x="160" y="390" as="targetPoint" />
          </mxGeometry>
        </mxCell>
        <mxCell id="rxodD__buRXMYbfE_kAh-21" value="&lt;b&gt;&lt;font style=&quot;font-size: 14px;&quot;&gt;Actuatoren&lt;/font&gt;&lt;/b&gt;" style="text;html=1;align=center;verticalAlign=middle;whiteSpace=wrap;rounded=0;" vertex="1" parent="rxodD__buRXMYbfE_kAh-1">
          <mxGeometry x="645" y="440" width="60" height="30" as="geometry" />
        </mxCell>
        <mxCell id="rxodD__buRXMYbfE_kAh-22" value="&lt;b&gt;&lt;font style=&quot;font-size: 14px;&quot;&gt;Sensoren&lt;/font&gt;&lt;/b&gt;" style="text;html=1;align=center;verticalAlign=middle;whiteSpace=wrap;rounded=0;" vertex="1" parent="rxodD__buRXMYbfE_kAh-1">
          <mxGeometry x="75" y="440" width="60" height="30" as="geometry" />
        </mxCell>
        <mxCell id="rxodD__buRXMYbfE_kAh-23" value="" style="endArrow=classic;html=1;rounded=0;exitX=1;exitY=1;exitDx=0;exitDy=0;" edge="1" parent="rxodD__buRXMYbfE_kAh-1" source="rxodD__buRXMYbfE_kAh-17">
          <mxGeometry width="50" height="50" relative="1" as="geometry">
            <mxPoint x="110" y="490" as="sourcePoint" />
            <mxPoint x="170" y="370" as="targetPoint" />
          </mxGeometry>
        </mxCell>
        <mxCell id="rxodD__buRXMYbfE_kAh-24" value="&lt;font style=&quot;font-size: 19px;&quot;&gt;Fysieke wereld&lt;/font&gt;" style="text;html=1;align=center;verticalAlign=middle;whiteSpace=wrap;rounded=0;" vertex="1" parent="rxodD__buRXMYbfE_kAh-1">
          <mxGeometry x="315" y="470" width="160" height="30" as="geometry" />
        </mxCell>
        <mxCell id="rxodD__buRXMYbfE_kAh-25" value="" style="endArrow=classic;html=1;rounded=0;" edge="1" parent="rxodD__buRXMYbfE_kAh-1" source="rxodD__buRXMYbfE_kAh-18">
          <mxGeometry width="50" height="50" relative="1" as="geometry">
            <mxPoint x="390" y="430" as="sourcePoint" />
            <mxPoint x="160" y="380" as="targetPoint" />
          </mxGeometry>
        </mxCell>
        <mxCell id="rxodD__buRXMYbfE_kAh-26" value="" style="rhombus;whiteSpace=wrap;html=1;" vertex="1" parent="rxodD__buRXMYbfE_kAh-1">
          <mxGeometry x="655" y="320" width="50" height="49" as="geometry" />
        </mxCell>
        <mxCell id="rxodD__buRXMYbfE_kAh-27" value="" style="rhombus;whiteSpace=wrap;html=1;" vertex="1" parent="rxodD__buRXMYbfE_kAh-1">
          <mxGeometry x="655" y="379" width="50" height="49" as="geometry" />
        </mxCell>
        <mxCell id="rxodD__buRXMYbfE_kAh-28" value="" style="endArrow=classic;html=1;rounded=0;entryX=0;entryY=1;entryDx=0;entryDy=0;" edge="1" parent="rxodD__buRXMYbfE_kAh-1" target="rxodD__buRXMYbfE_kAh-26">
          <mxGeometry width="50" height="50" relative="1" as="geometry">
            <mxPoint x="610" y="380" as="sourcePoint" />
            <mxPoint x="440" y="380" as="targetPoint" />
          </mxGeometry>
        </mxCell>
        <mxCell id="rxodD__buRXMYbfE_kAh-29" value="" style="endArrow=classic;html=1;rounded=0;entryX=0;entryY=0.5;entryDx=0;entryDy=0;" edge="1" parent="rxodD__buRXMYbfE_kAh-1" target="rxodD__buRXMYbfE_kAh-27">
          <mxGeometry width="50" height="50" relative="1" as="geometry">
            <mxPoint x="610" y="380" as="sourcePoint" />
            <mxPoint x="440" y="380" as="targetPoint" />
          </mxGeometry>
        </mxCell>
        <mxCell id="rxodD__buRXMYbfE_kAh-30" value="&lt;font style=&quot;font-size: 19px;&quot;&gt;Informatie-wereld&lt;/font&gt;" style="text;html=1;align=center;verticalAlign=middle;whiteSpace=wrap;rounded=0;" vertex="1" parent="rxodD__buRXMYbfE_kAh-1">
          <mxGeometry x="310" y="250" width="160" height="30" as="geometry" />
        </mxCell>
        <mxCell id="rxodD__buRXMYbfE_kAh-31" value="&lt;b&gt;&lt;font style=&quot;font-size: 14px;&quot;&gt;Controller&lt;/font&gt;&lt;/b&gt;" style="text;html=1;align=center;verticalAlign=middle;whiteSpace=wrap;rounded=0;" vertex="1" parent="rxodD__buRXMYbfE_kAh-1">
          <mxGeometry x="360" y="335" width="60" height="30" as="geometry" />
        </mxCell>
      </root>
    </mxGraphModel>
  </diagram>
  <diagram id="zCaNrQ_cd_3wVf80DQQf" name="signaal-sturing">
    <mxGraphModel dx="954" dy="610" grid="1" gridSize="10" guides="1" tooltips="1" connect="1" arrows="1" fold="1" page="1" pageScale="1" pageWidth="827" pageHeight="1169" math="0" shadow="0">
      <root>
        <mxCell id="0" />
        <mxCell id="1" parent="0" />
        <mxCell id="YqzpTAjtu5TffT-2GGkG-1" value="&lt;b&gt;rekenen&lt;/b&gt;" style="rounded=0;whiteSpace=wrap;html=1;" vertex="1" parent="1">
          <mxGeometry x="270" y="160" width="120" height="40" as="geometry" />
        </mxCell>
        <mxCell id="YqzpTAjtu5TffT-2GGkG-2" value="" style="endArrow=classic;html=1;rounded=0;entryX=0;entryY=0.5;entryDx=0;entryDy=0;" edge="1" parent="1" target="YqzpTAjtu5TffT-2GGkG-1">
          <mxGeometry width="50" height="50" relative="1" as="geometry">
            <mxPoint x="200" y="180" as="sourcePoint" />
            <mxPoint x="230" y="190" as="targetPoint" />
          </mxGeometry>
        </mxCell>
        <mxCell id="YqzpTAjtu5TffT-2GGkG-3" value="" style="endArrow=classic;html=1;rounded=0;exitX=1;exitY=0.5;exitDx=0;exitDy=0;" edge="1" parent="1" source="YqzpTAjtu5TffT-2GGkG-1">
          <mxGeometry width="50" height="50" relative="1" as="geometry">
            <mxPoint x="390" y="340" as="sourcePoint" />
            <mxPoint x="460" y="180" as="targetPoint" />
          </mxGeometry>
        </mxCell>
        <mxCell id="YqzpTAjtu5TffT-2GGkG-4" value="&lt;b&gt;input-signaal&lt;/b&gt;" style="text;html=1;align=center;verticalAlign=middle;whiteSpace=wrap;rounded=0;" vertex="1" parent="1">
          <mxGeometry x="180" y="180" width="80" height="30" as="geometry" />
        </mxCell>
        <mxCell id="YqzpTAjtu5TffT-2GGkG-5" value="&lt;b&gt;output-signaal&lt;/b&gt;" style="text;html=1;align=center;verticalAlign=middle;whiteSpace=wrap;rounded=0;" vertex="1" parent="1">
          <mxGeometry x="400" y="180" width="90" height="30" as="geometry" />
        </mxCell>
        <mxCell id="YqzpTAjtu5TffT-2GGkG-6" style="edgeStyle=orthogonalEdgeStyle;rounded=0;orthogonalLoop=1;jettySize=auto;html=1;exitX=0.5;exitY=1;exitDx=0;exitDy=0;" edge="1" parent="1" source="YqzpTAjtu5TffT-2GGkG-4" target="YqzpTAjtu5TffT-2GGkG-4">
          <mxGeometry relative="1" as="geometry" />
        </mxCell>
      </root>
    </mxGraphModel>
  </diagram>
  <diagram name="feedback-signaal-sturing" id="dwVRYk20440_DNkFqbyk">
    <mxGraphModel dx="954" dy="610" grid="1" gridSize="10" guides="1" tooltips="1" connect="1" arrows="1" fold="1" page="1" pageScale="1" pageWidth="827" pageHeight="1169" math="0" shadow="0">
      <root>
        <mxCell id="9-Sa6qhSZfpgDKgW71wZ-0" />
        <mxCell id="9-Sa6qhSZfpgDKgW71wZ-1" parent="9-Sa6qhSZfpgDKgW71wZ-0" />
        <mxCell id="9-Sa6qhSZfpgDKgW71wZ-2" value="&lt;b&gt;rekenen&lt;/b&gt;" style="rounded=0;whiteSpace=wrap;html=1;" vertex="1" parent="9-Sa6qhSZfpgDKgW71wZ-1">
          <mxGeometry x="270" y="160" width="120" height="80" as="geometry" />
        </mxCell>
        <mxCell id="9-Sa6qhSZfpgDKgW71wZ-3" value="" style="endArrow=classic;html=1;rounded=0;entryX=0;entryY=0.25;entryDx=0;entryDy=0;" edge="1" parent="9-Sa6qhSZfpgDKgW71wZ-1" target="9-Sa6qhSZfpgDKgW71wZ-2">
          <mxGeometry width="50" height="50" relative="1" as="geometry">
            <mxPoint x="200" y="180" as="sourcePoint" />
            <mxPoint x="230" y="190" as="targetPoint" />
          </mxGeometry>
        </mxCell>
        <mxCell id="9-Sa6qhSZfpgDKgW71wZ-4" value="" style="endArrow=classic;html=1;rounded=0;exitX=1;exitY=0.5;exitDx=0;exitDy=0;" edge="1" parent="9-Sa6qhSZfpgDKgW71wZ-1" source="9-Sa6qhSZfpgDKgW71wZ-2">
          <mxGeometry width="50" height="50" relative="1" as="geometry">
            <mxPoint x="390" y="340" as="sourcePoint" />
            <mxPoint x="490" y="200" as="targetPoint" />
          </mxGeometry>
        </mxCell>
        <mxCell id="9-Sa6qhSZfpgDKgW71wZ-5" value="&lt;b&gt;instelwaarde&lt;/b&gt;" style="text;html=1;align=center;verticalAlign=middle;whiteSpace=wrap;rounded=0;" vertex="1" parent="9-Sa6qhSZfpgDKgW71wZ-1">
          <mxGeometry x="160" y="150" width="80" height="30" as="geometry" />
        </mxCell>
        <mxCell id="9-Sa6qhSZfpgDKgW71wZ-6" value="&lt;b&gt;stuurwaarde&lt;/b&gt;" style="text;html=1;align=center;verticalAlign=middle;whiteSpace=wrap;rounded=0;" vertex="1" parent="9-Sa6qhSZfpgDKgW71wZ-1">
          <mxGeometry x="390" y="170" width="90" height="30" as="geometry" />
        </mxCell>
        <mxCell id="9-Sa6qhSZfpgDKgW71wZ-7" style="edgeStyle=orthogonalEdgeStyle;rounded=0;orthogonalLoop=1;jettySize=auto;html=1;exitX=0.5;exitY=1;exitDx=0;exitDy=0;" edge="1" parent="9-Sa6qhSZfpgDKgW71wZ-1" source="9-Sa6qhSZfpgDKgW71wZ-5" target="9-Sa6qhSZfpgDKgW71wZ-5">
          <mxGeometry relative="1" as="geometry" />
        </mxCell>
        <mxCell id="5tKgn-2JwpwQvsnPzSQn-0" value="&lt;b&gt;gemeten waarde&lt;/b&gt;" style="text;html=1;align=center;verticalAlign=middle;whiteSpace=wrap;rounded=0;" vertex="1" parent="9-Sa6qhSZfpgDKgW71wZ-1">
          <mxGeometry x="150" y="190" width="110" height="30" as="geometry" />
        </mxCell>
        <mxCell id="5tKgn-2JwpwQvsnPzSQn-1" value="" style="endArrow=classic;html=1;rounded=0;entryX=0;entryY=0.75;entryDx=0;entryDy=0;exitX=0.567;exitY=0.988;exitDx=0;exitDy=0;exitPerimeter=0;" edge="1" parent="9-Sa6qhSZfpgDKgW71wZ-1" source="5tKgn-2JwpwQvsnPzSQn-2" target="9-Sa6qhSZfpgDKgW71wZ-2">
          <mxGeometry width="50" height="50" relative="1" as="geometry">
            <mxPoint x="460" y="330" as="sourcePoint" />
            <mxPoint x="440" y="290" as="targetPoint" />
            <Array as="points">
              <mxPoint x="560" y="260" />
              <mxPoint x="200" y="260" />
              <mxPoint x="200" y="220" />
            </Array>
          </mxGeometry>
        </mxCell>
        <mxCell id="5tKgn-2JwpwQvsnPzSQn-2" value="&lt;b&gt;fysisch&lt;/b&gt;&lt;div&gt;&lt;b&gt;systeem&lt;/b&gt;&lt;/div&gt;" style="ellipse;whiteSpace=wrap;html=1;" vertex="1" parent="9-Sa6qhSZfpgDKgW71wZ-1">
          <mxGeometry x="492" y="165" width="120" height="80" as="geometry" />
        </mxCell>
      </root>
    </mxGraphModel>
  </diagram>
  <diagram id="fevbXEXcqEQdxjI-GYmo" name="Pagina-6">
    <mxGraphModel dx="954" dy="610" grid="1" gridSize="10" guides="1" tooltips="1" connect="1" arrows="1" fold="1" page="1" pageScale="1" pageWidth="827" pageHeight="1169" math="0" shadow="0">
      <root>
        <mxCell id="0" />
        <mxCell id="1" parent="0" />
      </root>
    </mxGraphModel>
  </diagram>
</mxfile>
